<?xml version="1.0"?>
<svg width="180" height="180" xmlns="http://www.w3.org/2000/svg" xmlns:svg="http://www.w3.org/2000/svg" version="1.1">
 <metadata id="metadata27">image/svg+xml</metadata>

 <g class="layer">
  <title>Layer 1</title>
  <g id="svg_2">
   <svg height="100%" id="svg_1" version="1.1" viewBox="0 0 380 280" width="100%"/>
  </g>
  <g fill="#20cfcb" font-family="IDJueJiangHei" font-size="40px" id="text4">
   <path d="m73.02,72.68l0,4.08l3.6,0l0,4.72l-3.6,0l0,7.4l3.16,-0.84l0,4l5.16,-14.08l-3.76,0l0,-4.56l21.8,0l0,4.56l-11.36,0l-2.6,6.84l13.52,0l0,23.12l-19.44,0l0,-12.72l-4.48,0l0.64,-1.72l-2.64,0.68l0,10.8l-5.44,4.52l-3.64,-4.52l3.36,-2.64l0,-6.64l-3.6,0.92l0,-5.28l3.6,-0.92l0,-8.92l-3.56,0l0,-4.72l3.56,0l0,-4.08l5.72,0zm12.44,30.68l7.56,0l0,-14.04l-7.56,0l0,14.04z" fill="#20cfcb" id="path29"/>
  </g>
  <g fill="#20cfcb" font-family="IDJueJiangHei" font-size="40px" id="text6">
   <path d="m113.96,72.6l0,4.08l5.44,0l0,4.72l-5.44,0l0,8.84l5.04,-0.68l0,5.28l-5.04,0.68l0,9.36l-5.6,4.52l-3.72,-4.52l3.44,-2.64l0,-5.96l-5,0.64l0,-5.28l5,-0.64l0,-9.6l-5,0l0,-4.72l5,0l0,-4.08l5.88,0zm14.28,36.24l-6.04,0l0,-36.52l6.04,0l0,36.52zm10.04,-7.48l-5.52,0l-2.88,-21.44l5.4,0l3,21.44z" fill="#20cfcb" id="path32"/>
  </g>
  <g fill="#20cfcb" font-family="IDJueJiangHei" font-size="40px" id="text8">
   <path d="m157.98,82.6l5.72,-10.16l7.92,0l7.4,13.04l-5.76,0l-5.6,-9.68l-3.2,5.56l5.16,0l1.8,5.52l-5.44,0l-1.6,-5.36l-2.28,3.96l-4.12,0l0,21.32l-15.92,0l0,-31.04l4.32,0l0,27.48l1.28,0l0,-30.6l4.56,0l0,30.6l1.28,0l0,-27.48l4.48,0l0,6.84zm8.68,17.32l4.4,-6.12l-12.28,0l0,-4.32l18.32,0l0,4.92l-6.64,9.72l4.12,4.44l-7,0l-8.96,-10.08l6.72,0l1.32,1.44z" fill="#20cfcb" id="path35"/>
  </g>
  <g id="svg_9">
   <svg height="134" id="svg_3" version="1.1" width="124" x="0.75" y="23.62">
    <g id="svg_15">
     <svg height="134" id="svg_10" version="1.1" viewBox="0 0 124 134" width="124">
      <linearGradient id="svg_12" x1="1" x2="0" y1="0.5" y2="0.5">
       <stop id="svg_14" offset="0" stop-color="#20CFCB"/>
       <stop id="svg_13" offset="1" stop-color="#20CFCB"/>
      </linearGradient>
      <path d="m305.44,798c24.6,0 46.07,13.47 57.56,33.5l-9.31,0c-10.56,-15.44 -28.23,-25.57 -48.25,-25.57c-32.35,0 -58.57,26.45 -58.57,59.07c0,32.62 26.22,59.07 58.57,59.07c19.64,0 37.01,-9.74 47.64,-24.69l9.41,0c-11.61,19.54 -32.81,32.62 -57.05,32.62c-36.69,0 -66.44,-30 -66.44,-67c0,-37 29.75,-67 66.44,-67zm0,9.7c18.99,0 35.79,9.38 46.11,23.8l-10.06,0c-8.96,-9.79 -21.79,-15.93 -36.05,-15.93c-27.07,0 -49.01,22.13 -49.01,49.43c0,27.3 21.94,49.43 49.01,49.43c13.83,0 26.31,-5.77 35.22,-15.05l10.25,0c-10.37,13.92 -26.87,22.92 -45.47,22.92c-31.38,0 -56.82,-25.65 -56.82,-57.3c0,-31.65 25.44,-57.3 56.82,-57.3z" fill="url(#svg_12)" id="svg_11" transform="translate(-239,-798)"/>
     </svg>
    </g>
   </svg>
  </g>
 </g>
</svg>