<svg
   xmlns:dc="http://purl.org/dc/elements/1.1/"
   xmlns:cc="http://creativecommons.org/ns#"
   xmlns:rdf="http://www.w3.org/1999/02/22-rdf-syntax-ns#"
   xmlns:svg="http://www.w3.org/2000/svg"
   xmlns="http://www.w3.org/2000/svg"
   id="svg21"
   version="1.1"
   viewBox="0 0  380 280">
  <metadata
     id="metadata27">
    <rdf:RDF>
      <cc:Work
         rdf:about="">
        <dc:format>image/svg+xml</dc:format>
        <dc:type
           rdf:resource="http://purl.org/dc/dcmitype/StillImage" />
      </cc:Work>
    </rdf:RDF>
  </metadata>
  <defs
     id="defs25" />
  <svg
     height="100%"
     width="100%"
     id="svg2"
     version="1.1"
     viewBox="0 0 380 280" />
  <g
     id="text4"
     style="font-size:40px;font-family:IDJueJiangHei;fill:#20cfcb;fill-opacity:1"
     aria-label="拓">
    <path
       id="path29"
       style="font-size:40px;font-family:IDJueJiangHei;fill:#20cfcb;fill-opacity:1"
       d="m 173.02,122.0625 v 4.08 h 3.6 v 4.72 h -3.6 v 7.4 l 3.16,-0.84 v 4 l 5.16,-14.08 h -3.76 v -4.56 h 21.8 v 4.56 h -11.36 l -2.6,6.84 h 13.52 v 23.12 H 179.5 v -12.72 h -4.48 l 0.64,-1.72 -2.64,0.68 v 10.8 l -5.44,4.52 -3.64,-4.52 3.36,-2.64 v -6.64 l -3.6,0.92 v -5.28 l 3.6,-0.92 v -8.92 h -3.56 v -4.72 h 3.56 v -4.08 z m 12.44,30.68 h 7.56 v -14.04 h -7.56 z" />
  </g>
  <g
     id="text6"
     style="font-size:40px;font-family:IDJueJiangHei;fill:#20cfcb;fill-opacity:1"
     aria-label="扑">
    <path
       id="path32"
       style="font-size:40px;font-family:IDJueJiangHei;fill:#20cfcb;fill-opacity:1"
       d="m 213.96,121.9825 v 4.08 h 5.44 v 4.72 h -5.44 v 8.84 l 5.04,-0.68 v 5.28 l -5.04,0.68 v 9.36 l -5.6,4.52 -3.72,-4.52 3.44,-2.64 v -5.96 l -5,0.64 v -5.28 l 5,-0.64 v -9.6 h -5 v -4.72 h 5 v -4.08 z m 14.28,36.24 h -6.04 v -36.52 h 6.04 z m 10.04,-7.48 h -5.52 l -2.88,-21.44 h 5.4 z" />
  </g>
  <g
     id="text8"
     style="font-size:40px;font-family:IDJueJiangHei;fill:#20cfcb;fill-opacity:1"
     aria-label="岭">
    <path
       id="path35"
       style="font-size:40px;font-family:IDJueJiangHei;fill:#20cfcb;fill-opacity:1"
       d="m 257.98,131.9825 5.72,-10.16 h 7.92 l 7.4,13.04 h -5.76 l -5.6,-9.68 -3.2,5.56 h 5.16 l 1.8,5.52 h -5.44 l -1.6,-5.36 -2.28,3.96 h -4.12 v 21.32 h -15.92 v -31.04 h 4.32 v 27.48 h 1.28 v -30.6 h 4.56 v 30.6 h 1.28 v -27.48 h 4.48 z m 8.68,17.32 4.4,-6.12 h -12.28 v -4.32 h 18.32 v 4.92 l -6.64,9.72 4.12,4.44 h -7 l -8.96,-10.08 h 6.72 z" />
  </g>
  <svg
     id="svg19"
     version="1.1"
     height="134"
     width="124"
     y="73"
     x="100.75">
    <svg
       id="svg17"
       version="1.1"
       width="124"
       viewBox="0 0 124 134"
       height="134">
      <linearGradient
         y2="0.5"
         y1="0.5"
         x2="0"
         x1="1"
         id="a">
        <stop
           id="stop10"
           stop-color="#20CFCB"
           offset="0" />
        <stop
           id="stop12"
           stop-color="#20CFCB"
           offset="1" />
      </linearGradient>
      <path
         style="fill:url(#a)"
         id="path15"
         transform="translate(-239,-798)"
         d="m 305.44456,798 c 24.59387,0 46.06689,13.47366 57.55546,33.50001 l -9.30515,2.4e-4 c -10.5658,-15.44418 -28.23581,-25.56604 -48.25031,-25.56604 -32.3507,0 -58.57613,26.44465 -58.57613,59.06579 0,32.62113 26.22543,59.06579 58.57613,59.06579 19.63077,0 37.00609,-9.73745 47.63479,-24.68364 l 9.40577,-2.4e-4 C 350.87727,918.92091 329.67565,932 305.44456,932 268.74824,932 239,902.00308 239,865 c 0,-37.00308 29.74824,-67 66.44456,-67 z m 0,9.69737 c 18.98135,0 35.78913,9.38396 46.10962,23.80211 l -10.06564,2.3e-4 c -8.95696,-9.79393 -21.78999,-15.9287 -36.04398,-15.9287 -27.07257,0 -49.01921,22.13011 -49.01921,49.42899 0,27.29888 21.94664,49.42899 49.01921,49.42899 13.82131,0 26.3066,-5.76797 35.21765,-15.04698 l 10.24827,-2e-5 c -10.36771,13.91796 -26.87419,22.92064 -45.46592,22.92064 -31.38501,0 -56.82759,-25.65526 -56.82759,-57.30263 0,-31.64737 25.44258,-57.30263 56.82759,-57.30263 z" />
    </svg>
  </svg>
</svg>
